<svg xmlns="http://www.w3.org/2000/svg" xmlns:xlink="http://www.w3.org/1999/xlink" width="1920" zoomAndPan="magnify" viewBox="0 0 1440 809.999993" height="1080" preserveAspectRatio="xMidYMid meet" version="1.0"><defs><filter x="0%" y="0%" width="100%" height="100%" id="20417c780c"><feColorMatrix values="0 0 0 0 1 0 0 0 0 1 0 0 0 0 1 0 0 0 1 0" color-interpolation-filters="sRGB"/></filter><mask id="d284a6f2de"><g filter="url(#20417c780c)"><rect x="-144" width="1728" fill="#000000" y="-80.999999" height="971.999992" fill-opacity="0.22"/></g></mask><clipPath id="0c3df6d42b"><path d="M 62 20 L 290 20 L 290 487 L 62 487 Z M 62 20 " clip-rule="nonzero"/></clipPath><clipPath id="a9d3557a34"><path d="M -263.527344 146.675781 L 274.320312 0.910156 L 410.472656 503.289062 L -127.375 649.054688 Z M -263.527344 146.675781 " clip-rule="nonzero"/></clipPath><clipPath id="5bbc840c23"><path d="M -121.644531 108.226562 L 274.320312 0.910156 L 410.472656 503.289062 L 14.507812 610.601562 Z M -121.644531 108.226562 " clip-rule="nonzero"/></clipPath><clipPath id="8b3323a13f"><path d="M -263.570312 146.6875 L 274.277344 0.921875 L 410.429688 503.296875 L -127.417969 649.066406 Z M -263.570312 146.6875 " clip-rule="nonzero"/></clipPath><clipPath id="6d22531b34"><path d="M 0 276 L 79 276 L 79 556 L 0 556 Z M 0 276 " clip-rule="nonzero"/></clipPath><clipPath id="cc2ae14601"><path d="M -263.527344 146.675781 L 274.320312 0.910156 L 410.472656 503.289062 L -127.375 649.054688 Z M -263.527344 146.675781 " clip-rule="nonzero"/></clipPath><clipPath id="a5295029af"><path d="M -121.644531 108.226562 L 274.320312 0.910156 L 410.472656 503.289062 L 14.507812 610.601562 Z M -121.644531 108.226562 " clip-rule="nonzero"/></clipPath><clipPath id="b9056bf052"><path d="M -263.570312 146.6875 L 274.277344 0.921875 L 410.429688 503.296875 L -127.417969 649.066406 Z M -263.570312 146.6875 " clip-rule="nonzero"/></clipPath><clipPath id="f355396c20"><path d="M 0 158 L 190 158 L 190 556 L 0 556 Z M 0 158 " clip-rule="nonzero"/></clipPath><clipPath id="d355787814"><path d="M -263.527344 146.675781 L 274.320312 0.910156 L 410.472656 503.289062 L -127.375 649.054688 Z M -263.527344 146.675781 " clip-rule="nonzero"/></clipPath><clipPath id="7c6c86075f"><path d="M -121.644531 108.226562 L 274.320312 0.910156 L 410.472656 503.289062 L 14.507812 610.601562 Z M -121.644531 108.226562 " clip-rule="nonzero"/></clipPath><clipPath id="75d4f48000"><path d="M -263.570312 146.6875 L 274.277344 0.921875 L 410.429688 503.296875 L -127.417969 649.066406 Z M -263.570312 146.6875 " clip-rule="nonzero"/></clipPath><clipPath id="149c70ba2d"><rect x="0" width="412" y="0" height="556"/></clipPath><mask id="3ae3b06153"><g filter="url(#20417c780c)"><rect x="-144" width="1728" fill="#000000" y="-80.999999" height="971.999992" fill-opacity="0.19"/></g></mask><clipPath id="4bf9a3aee4"><path d="M 0.0390625 2.3125 L 223 2.3125 L 223 326 L 0.0390625 326 Z M 0.0390625 2.3125 " clip-rule="nonzero"/></clipPath><clipPath id="70d68064e7"><path d="M 1 2.3125 L 223 2.3125 L 223 326 L 1 326 Z M 1 2.3125 " clip-rule="nonzero"/></clipPath><clipPath id="5114419c01"><rect x="0" width="223" y="0" height="327"/></clipPath></defs><rect x="-144" width="1728" fill="#ffffff" y="-80.999999" height="971.999992" fill-opacity="1"/><rect x="-144" width="1728" fill="#b3cbb2" y="-80.999999" height="971.999992" fill-opacity="1"/><g mask="url(#d284a6f2de)"><g transform="matrix(1, 0, 0, 1, 0, 254)"><g clip-path="url(#149c70ba2d)"><g clip-path="url(#0c3df6d42b)"><g clip-path="url(#a9d3557a34)"><g clip-path="url(#5bbc840c23)"><g clip-path="url(#8b3323a13f)"><path fill="#646d4a" d="M 163.242188 486.035156 C 136.167969 482.851562 89.933594 463.324219 74.714844 419.734375 C 58.046875 372 71.765625 360.753906 80.523438 329.0625 C 89.398438 296.910156 41.335938 238.527344 73.433594 189.714844 C 105.523438 140.90625 196.359375 54.910156 220.628906 31.871094 C 244.894531 8.832031 279.175781 19.128906 276.476562 82.503906 C 274.894531 119.480469 248.855469 176.460938 279.339844 240.886719 C 309.824219 305.3125 260.457031 393.792969 241.75 418.398438 C 223.046875 443.011719 202.085938 490.589844 163.242188 486.035156 Z M 163.242188 486.035156 " fill-opacity="1" fill-rule="nonzero"/></g></g></g></g><g clip-path="url(#6d22531b34)"><g clip-path="url(#cc2ae14601)"><g clip-path="url(#a5295029af)"><g clip-path="url(#b9056bf052)"><path fill="#646d4a" d="M 66.480469 536.882812 C 77.941406 521.792969 88.359375 463.324219 63.757812 437.070312 C 39.164062 410.8125 26.789062 373.527344 3.902344 360.851562 C -24.859375 344.917969 -74.078125 320.714844 -94.242188 304.125 C -128.535156 275.929688 -215.121094 265.996094 -205.992188 289.097656 C -189.039062 332.027344 -192.785156 407.640625 -163.84375 448.429688 C -154.382812 461.757812 -125.085938 482.90625 -120.261719 495.660156 C -115.4375 508.410156 -94.476562 551.363281 -46.148438 560.203125 C 2.183594 569.050781 51.070312 557.171875 66.480469 536.882812 Z M 66.480469 536.882812 " fill-opacity="1" fill-rule="nonzero"/></g></g></g></g><g clip-path="url(#f355396c20)"><g clip-path="url(#d355787814)"><g clip-path="url(#7c6c86075f)"><g clip-path="url(#75d4f48000)"><path fill="#8a9968" d="M -78.273438 388.558594 C -65.417969 387.992188 -9.074219 466.839844 16.757812 486.242188 C 42.589844 505.644531 107.886719 553.09375 119.796875 550.214844 C 131.703125 547.335938 152.117188 459.511719 147.488281 424.757812 C 142.871094 390.003906 153.429688 274.675781 159.015625 244.707031 C 164.601562 214.738281 178.769531 151.921875 187.816406 158.726562 C 196.863281 165.535156 169.84375 223.945312 170.324219 256.050781 C 170.800781 288.148438 173.152344 370.34375 173.433594 398.53125 C 173.71875 426.6875 181.601562 547.292969 129.679688 571.539062 C 89.753906 590.195312 23.027344 519.519531 -5.820312 488.941406 C -34.671875 458.351562 -95.273438 389.320312 -78.273438 388.558594 Z M -78.273438 388.558594 " fill-opacity="1" fill-rule="nonzero"/></g></g></g></g></g></g></g><g mask="url(#3ae3b06153)"><g transform="matrix(1, 0, 0, 1, 1217, 63)"><g clip-path="url(#5114419c01)"><g clip-path="url(#4bf9a3aee4)"><path fill="#506350" d="M 146.632812 213.367188 C 156.925781 212.8125 185.300781 246.976562 194.738281 248.265625 C 198.863281 248.839844 214.03125 259.984375 230.152344 274.101562 C 220.753906 261.589844 211.96875 248.542969 206.160156 236.964844 C 187.421875 199.546875 111.65625 175.535156 79.910156 143.09375 C 48.164062 110.636719 74.4375 124.792969 0.65625 2.230469 C 0.65625 2.230469 49.039062 17.441406 70.589844 41.789062 C 92.144531 66.140625 124.464844 103.636719 139.417969 107.304688 C 154.367188 110.992188 180.34375 172.5 193.269531 178.488281 C 201.71875 182.394531 235.347656 231.074219 256.78125 273.25 C 253.628906 261.414062 251.050781 249.417969 250.082031 239.246094 C 246.90625 205.375 199.714844 166.414062 185.972656 132.863281 C 172.253906 99.3125 187.046875 117.296875 167.832031 3.046875 C 167.832031 3.046875 198.011719 27.851562 206.695312 52.398438 C 215.378906 76.964844 228.167969 114.5625 237.765625 121.441406 C 247.363281 128.324219 249.167969 182.671875 256.722656 190.78125 C 264.117188 198.714844 284.484375 299.503906 275.125 325.816406 C 275.261719 326.273438 231.242188 301.089844 214.109375 283.027344 C 194.957031 262.820312 141.777344 262.226562 115.226562 247.710938 C 88.675781 233.195312 108.226562 237.101562 37.558594 173.332031 C 37.558594 173.332031 71.503906 173.632812 89.964844 184.972656 C 108.425781 196.316406 136.304688 213.921875 146.59375 213.367188 Z M 146.632812 213.367188 " fill-opacity="1" fill-rule="nonzero"/></g><g clip-path="url(#70d68064e7)"><path fill="#000000" d="M 121.710938 227.128906 C 138.960938 238.945312 164.738281 243.765625 192.734375 260.441406 C 220.734375 277.117188 274.945312 325.0625 274.945312 325.0625 C 265.40625 314.019531 248.871094 299.285156 248.871094 299.285156 C 188.253906 241.523438 158.113281 242.992188 140.625 232.820312 C 95.019531 206.289062 36.863281 174.046875 37.933594 173.351562 C 36.960938 174.085938 104.300781 215.230469 121.730469 227.167969 Z M 168.1875 3.285156 C 166.761719 3.203125 196.542969 77.144531 219.007812 136.375 C 227.632812 159.078125 255.613281 179.382812 269.96875 280.429688 C 269.96875 280.429688 274.589844 306.980469 275.5 324.824219 C 275.5 324.824219 260.09375 238.152344 246.570312 201.410156 C 233.027344 164.667969 213.296875 141.289062 206.019531 117.121094 C 198.683594 92.710938 166.820312 3.324219 168.207031 3.285156 Z M 1.171875 2.371094 C -0.652344 2.90625 68.707031 74.625 122.542969 132.664062 C 143.183594 154.914062 186.886719 165.9375 248.871094 275.453125 C 248.871094 275.453125 266.199219 303.867188 275.125 323.914062 C 275.125 323.914062 218.117188 231.3125 185.222656 195.125 C 152.34375 158.9375 117.546875 140.792969 97.933594 116.265625 C 78.144531 91.5 -0.535156 2.984375 1.171875 2.351562 Z M 1.171875 2.371094 " fill-opacity="1" fill-rule="nonzero"/></g></g></g></g></svg>