<svg xmlns="http://www.w3.org/2000/svg" xmlns:xlink="http://www.w3.org/1999/xlink" width="500" zoomAndPan="magnify" viewBox="0 0 375 374.999991" height="500" preserveAspectRatio="xMidYMid meet" version="1.0"><defs><clipPath id="d4ba51d68a"><path d="M 8.355469 6.546875 L 366.855469 6.546875 L 366.855469 368.796875 L 8.355469 368.796875 Z M 8.355469 6.546875 " clip-rule="nonzero"/></clipPath></defs><path fill="#b3cbb2" d="M 187.78125 319.210938 C 223.503906 319.210938 256.324219 304.242188 279.976562 280.589844 C 303.628906 256.933594 318.109375 224.113281 318.109375 187.914062 C 318.109375 173.429688 315.691406 158.949219 311.347656 145.917969 C 307.003906 133.371094 301.210938 121.78125 293.492188 111.648438 L 117.3125 298.453125 C 126.960938 304.730469 137.582031 310.039062 148.683594 313.414062 C 161.234375 316.792969 174.265625 319.210938 187.78125 319.210938 Z M 284.800781 284.9375 C 260.183594 310.035156 225.429688 325.480469 187.78125 325.964844 C 173.296875 325.964844 159.78125 323.546875 146.75 319.683594 C 133.238281 315.339844 120.6875 309.070312 110.070312 301.339844 C 108.621094 300.375 108.140625 297.960938 109.105469 296.515625 L 291.078125 103.4375 C 292.527344 101.992188 294.457031 101.992188 295.910156 103.4375 L 296.386719 103.921875 C 305.558594 115.503906 312.800781 129.015625 317.625 143.5 C 322.453125 157.496094 324.867188 172.460938 324.867188 187.910156 C 324.867188 225.5625 309.417969 260.316406 284.800781 284.9375 Z M 284.800781 284.9375 " fill-opacity="1" fill-rule="nonzero"/><path fill="#b3cbb2" d="M 57.453125 187.429688 C 57.453125 201.914062 59.867188 216.394531 64.695312 229.425781 C 69.039062 241.492188 74.832031 253.074219 82.070312 263.695312 L 258.253906 77.378906 C 248.601562 71.097656 237.980469 65.789062 226.390625 61.929688 C 214.328125 58.066406 201.296875 56.132812 187.777344 56.132812 C 151.574219 56.132812 119.234375 70.617188 95.582031 94.753906 C 71.933594 117.921875 57.453125 150.746094 57.453125 187.429688 Z M 50.210938 187.429688 C 50.210938 149.296875 65.660156 114.539062 90.761719 89.449219 C 115.855469 64.34375 150.132812 48.898438 187.78125 48.898438 C 201.777344 48.898438 215.777344 51.3125 228.324219 55.171875 C 241.359375 59.519531 253.910156 65.796875 265.496094 73.515625 C 266.941406 74.480469 267.421875 76.898438 266.460938 78.34375 L 84.003906 271.417969 C 82.558594 272.871094 80.625 272.871094 79.175781 271.417969 L 78.695312 270.9375 C 70.007812 258.871094 62.765625 245.835938 57.941406 231.355469 C 53.109375 217.84375 50.210938 202.878906 50.210938 187.429688 Z M 50.210938 187.429688 " fill-opacity="1" fill-rule="nonzero"/><g clip-path="url(#d4ba51d68a)"><path fill="#b3cbb2" d="M 60.835938 315.34375 C 28.492188 282.523438 8.21875 237.628906 8.21875 187.429688 C 8.21875 139.160156 27.046875 95.71875 57.453125 62.898438 C 87.859375 30.558594 130.339844 9.316406 177.648438 6.902344 C 181.992188 6.425781 192.609375 6.425781 196.957031 6.902344 C 244.261719 9.320312 286.734375 30.558594 317.148438 62.902344 C 347.558594 95.238281 366.382812 139.164062 366.382812 187.433594 C 366.382812 237.628906 346.589844 282.523438 313.769531 315.347656 C 281.425781 348.167969 236.53125 368.445312 187.296875 368.445312 C 138.546875 367.957031 93.175781 348.167969 60.835938 315.34375 Z M 62.761719 67.726562 C 33.320312 99.101562 15.460938 141.089844 15.460938 187.429688 C 15.460938 235.699219 34.769531 278.660156 65.660156 310.515625 C 97.039062 341.894531 139.996094 361.679688 187.78125 361.679688 C 235.089844 361.679688 278.046875 342.375 309.417969 310.515625 C 340.3125 279.140625 359.617188 235.699219 359.617188 187.429688 C 359.617188 141.089844 341.761719 99.097656 312.3125 67.722656 C 282.871094 36.351562 242.332031 16.074219 196.953125 13.667969 L 178.121094 13.667969 C 132.757812 16.074219 92.207031 36.351562 62.761719 67.726562 Z M 62.761719 67.726562 " fill-opacity="1" fill-rule="nonzero"/></g></svg>